<?xml version="1.0" standalone="no"?>
<!DOCTYPE svg PUBLIC "-//W3C//DTD SVG 20010904//EN"
 "http://www.w3.org/TR/2001/REC-SVG-20010904/DTD/svg10.dtd">
<svg version="1.0" xmlns="http://www.w3.org/2000/svg"
 width="1890.000000pt" height="2231.000000pt" viewBox="0 0 1890.000000 2231.000000"
 preserveAspectRatio="xMidYMid meet">

<g transform="translate(0.000000,2231.000000) scale(0.100000,-0.100000)"
fill="#000000" stroke="none">
<path d="M4940 20999 c0 -5 5 -7 10 -4 6 3 10 8 10 11 0 2 -4 4 -10 4 -5 0
-10 -5 -10 -11z"/>
<path d="M5076 21002 c-2 -4 -5 -137 -6 -297 0 -159 -4 -303 -7 -320 -3 -16
-8 -4610 -10 -10207 l-4 -10178 80 0 81 0 -2 9443 c-1 8063 -5 10580 -18
11375 -1 104 -5 140 -13 135 -7 -4 -6 1 2 10 10 13 10 17 1 17 -10 0 -9 4 1
18 11 14 10 13 -9 -2 -12 -11 -22 -16 -22 -12 0 4 -9 2 -20 -4 -15 -8 -18 -8
-14 3 5 14 -32 31 -40 19z m94 -28 c0 -8 -19 -13 -24 -6 -3 5 1 9 9 9 8 0 15
-2 15 -3z"/>
<path d="M5271 20998 c-1 -7 -5 -2167 -8 -4799 -4 -4506 -4 -4787 12 -4793 48
-18 45 -298 45 4796 0 2921 -4 4777 -9 4773 -5 -3 -12 4 -16 15 -7 22 -20 27
-24 8z"/>
<path d="M4970 20989 c-11 -8 -12 -12 -3 -16 10 -3 10 -10 2 -24 -5 -11 -14
-17 -20 -14 -5 4 -9 -1750 -9 -4753 0 -5062 -2 -4794 44 -4776 15 6 16 342 14
4328 -1 2376 -5 4533 -8 4793 -4 417 -7 471 -20 462z"/>
<path d="M4940 20971 c0 -5 5 -13 10 -16 6 -3 10 -2 10 4 0 5 -4 13 -10 16 -5
3 -10 2 -10 -4z"/>
</g>
</svg>
